<?xml version="1.0" encoding="utf-8"?>
<!-- Generator: Adobe Illustrator 23.0.6, SVG Export Plug-In . SVG Version: 6.00 Build 0)  -->
<svg version="1.1" id="Layer_1" xmlns="http://www.w3.org/2000/svg" xmlns:xlink="http://www.w3.org/1999/xlink" x="0px" y="0px"
	 viewBox="0 0 269 133" style="enable-background:new 0 0 269 133;" xml:space="preserve">
<style type="text/css">
	.st0{fill:none;stroke:#6CBE45;stroke-miterlimit:10;}
	.st1{fill:#F7EC13;}
	.st2{fill:none;stroke:#0099CD;stroke-miterlimit:10;}
	.st3{fill:none;stroke:#0099CD;stroke-width:2;stroke-miterlimit:10;}
	.st4{fill:none;stroke:#6CBE45;stroke-width:2;stroke-miterlimit:10;}
	.st5{fill:none;}
</style>
<g>
	<path class="st0" d="M211.3,14.6c32.9,11.6,54.3,30.4,54.3,51.7c0,22.6-24.1,42.5-60.5,53.8c9.6-15.4,15.5-36,15.5-58.7
		C220.6,44.2,217.2,28.1,211.3,14.6z"/>
	<path class="st1" d="M199.1,60.6l-3.9,3.4l-1,0.8l-59.6,51.6l27.2-50.5l-12.2-10.1l-3.2-2.6l-2.6-2.2l15-28.7l0.5-0.9l-0.3-1.5
		L156.5,9l-0.4-1.7l-0.6-2.8l-0.2-1.1l-0.1-0.6l0,0c4,0.4,8,0.9,12.1,1.5c0.7,0.1,1.4,0.2,2,0.3c0.5,0.1,1,0.2,1.6,0.2
		c1.6,0.3,3.2,0.5,4.8,0.8c0.3,0,0.6,0.1,0.9,0.2c0.1,0,0.2,0,0.3,0.1h0.1c0,0,0,0,0.1,0c0.2,0,0.3,0.1,0.5,0.1l0,0l0,0
		c0.5,0.1,1,0.2,1.5,0.3c0.1,0,0.1,0,0.2,0.1c0.1,0,0.1,0,0.2,0h0.1l0,0h0.2h0.1l0,0h0.2c0.1,0,0.2,0.1,0.4,0.1l0,0h0.1l0,0h0.1h0.1
		l0.8,0.2c0.1,0,0.2,0,0.3,0.1l0.4,0.1c0.9,0.2,1.7,0.4,2.6,0.6c3,0.7,5.9,1.4,8.7,2.1c0.5,0.1,0.9,0.2,1.4,0.4l0,0v0.3l0,0l0.1,0.5
		v0.1l0.1,0.6l0.5,3.4l1.8,13.5l0.2,1.1l-0.5,0.5l-16.3,17.9L199.1,60.6z"/>
	<path class="st2" d="M103.7,61.4c0,27.9,8.9,52.8,22.8,68.6c-68.6-2-123-29.8-123-63.7C3.5,33.6,54,6.6,119.1,2.9
		C109.6,18.3,103.7,38.9,103.7,61.4z"/>
	<path class="st3" d="M103.7,61.4c0-22.6,5.8-43.1,15.4-58.5C54,6.6,3.5,33.6,3.5,66.3c0,33.9,54.4,61.7,123,63.7
		C112.7,114.2,103.7,89.4,103.7,61.4z"/>
	<path class="st4" d="M211.3,14.6c5.9,13.5,9.3,29.6,9.3,46.9c0,22.6-5.9,43.2-15.5,58.7c36.4-11.4,60.5-31.3,60.5-53.9
		C265.6,45,244.2,26.2,211.3,14.6z"/>
	<path class="st5" d="M199.1,60.6l-3.9,3.4l-1,0.8l-59.6,51.6l27.2-50.5l-12.2-10.1l-3.2-2.6l-2.6-2.2l15-28.7l0.5-0.9l-0.3-1.5
		L156.5,9l-0.4-1.7l-0.6-2.8l-0.2-1.1l-0.1-0.6l0,0c4,0.4,8,0.9,12.1,1.5c0.7,0.1,1.4,0.2,2,0.3c0.5,0.1,1,0.2,1.6,0.2
		c1.6,0.3,3.2,0.5,4.8,0.8c0.3,0,0.6,0.1,0.9,0.2c0.1,0,0.2,0,0.3,0.1h0.1c0,0,0,0,0.1,0c0.2,0,0.3,0.1,0.5,0.1l0,0l0,0
		c0.5,0.1,1,0.2,1.5,0.3c0.1,0,0.1,0,0.2,0.1c0.1,0,0.1,0,0.2,0h0.1l0,0h0.2h0.1l0,0h0.2c0.1,0,0.2,0.1,0.4,0.1l0,0h0.1l0,0h0.1h0.1
		l0.8,0.2c0.1,0,0.2,0,0.3,0.1l0.4,0.1c0.9,0.2,1.7,0.4,2.6,0.6c3,0.7,5.9,1.4,8.7,2.1c0.5,0.1,0.9,0.2,1.4,0.4l0,0v0.3l0,0l0.1,0.5
		v0.1l0.1,0.6l0.5,3.4l1.8,13.5l0.2,1.1l-0.5,0.5l-16.3,17.9L199.1,60.6z"/>
</g>
</svg>
