<?xml version="1.0" encoding="utf-8"?>
<!-- Generator: Adobe Illustrator 23.1.0, SVG Export Plug-In . SVG Version: 6.00 Build 0)  -->
<svg version="1.1" id="Layer_1" xmlns="http://www.w3.org/2000/svg" xmlns:xlink="http://www.w3.org/1999/xlink" x="0px" y="0px"
	 viewBox="0 0 1394 545.4" style="enable-background:new 0 0 1394 545.4;" xml:space="preserve">
<style type="text/css">
	.st0{fill:#FFFFFF;}
</style>
<g transform="translate(0.000000,1800.000000) scale(0.100000,-0.100000)">
	<path class="st0" d="M10824.6,17586.8c-22-2-44-9-49-14c-6-5-21-9-34-9c-14,0-41-4-61-10c-43-11-150-38-206-51c-22-5-51-14-65-19
		c-14-6-36-12-50-15c-29-5-155-43-185-56c-11-4-45-17-75-29s-68-28-83-36c-16-8-33-14-39-14c-5,0-24-6-41-14c-121-54-150-66-159-66
		c-14,0-471-230-489-246c-8-8-19-14-22-14c-10,0-246-140-327-193c-277-183-433-305-612-477c-132-127-201-225-230-325
		c-15-52-15-228,0-280c16-57,47-117,70-139c31-27,56-13,81,49c13,31,38,75,57,98c103,130,133,164,169,198c126,119,184,171,212,191
		c18,13,59,44,93,71c33,26,65,47,70,47c6,0,10,4,10,8s24,25,53,45c118,85,208,147,212,147c2,0,46,28,97,63c51,34,104,68,118,75
		c28,14,46,25,107,65c24,15,47,27,51,27c5,0,20,8,33,19c26,20,101,62,219,123c41,22,79,43,85,48c18,15,348,180,360,180
		c7,0,56,22,111,50c54,27,107,50,116,50s19,4,22,9s18,12,33,15c16,4,42,13,58,21c17,7,55,23,85,35c30,11,64,25,75,30
		c44,21,261,90,280,90c12,0,25,4,31,9c5,6,34,14,64,19c30,6,81,17,113,26s76,16,99,16c22,0,58,5,79,12c29,8,45,8,62,0
		c12-6,42-13,66-15c34-4,53-14,83-45c38-38,39-40,29-78c-26-96-198-285-371-409c-15-11-64-48-108-82c-45-35-85-63-90-63s-15-7-22-15
		c-13-15-383-266-405-274c-5-2-19-12-30-21c-11-10-39-29-63-42c-24-12-51-28-60-33c-9-6-39-23-67-39c-27-16-74-45-104-64
		c-29-19-87-52-129-73c-41-22-80-43-86-48c-34-28-351-180-359-172c-5,5,2,38,17,80c25,70,34,163,18,187c-23,34-177,83-224,71
		c-35-9-71-48-87-93c-7-22-24-61-37-87c-13-27-24-56-24-66c0-9-4-21-9-26c-5-6-21-41-36-80c-58-152-113-248-162-285
		c-25-19-51-37-57-40c-14-6-129-82-136-90c-3-3-24-21-48-39c-53-41-82-96-82-155c0-37,5-48,28-66c23-19,36-21,92-17c36,3,76,8,89,12
		c23,8,23,7,18-36c-4-24-10-79-16-121c-5-42-12-82-16-88s-4-34,0-62c6-42,15-58,50-93c43-44,98-66,117-47c13,13,68,142,68,159
		c0,7,9,32,19,55c11,24,34,81,52,128s47,117,64,155c18,39,38,85,45,102c12,33,81,103,100,103c6,0,29,12,53,27c46,30,326,173,338,173
		c4,0,54,22,111,48c97,45,124,57,238,102c104,41,239,64,342,58c93-6,146-35,179-100c27-54,36-152,19-215c-28-104-129-276-243-416
		c-126-154-458-459-652-597c-42-30-87-63-98-73c-66-55-389-266-442-289c-16-7-48-25-70-39c-47-30-326-167-405-200
		c-131-53-297-97-403-106c-103-9-188,39-237,135c-19,36-21,53-16,110c9,103,17,152,27,158c5,3,9,20,9,39s4,37,10,40c5,3,17,32,26,63
		s48,117,85,192c38,74,69,144,69,156c0,11-13,30-30,42c-25,19-42,22-118,22c-62,0-99-5-123-16c-45-22-79-54-79-74c0-8-6-24-13-35
		c-8-11-23-51-34-90c-12-38-29-97-39-130c-16-55-27-145-26-220c0-16,1-53,1-81c1-63,44-197,78-244c80-108,190-177,318-199
		c39-7,86-17,105-23c39-11,199-5,305,11c120,18,275,51,305,64c8,3,56,20,105,36c106,35,176,61,236,88c181,83,221,102,274,132
		c33,19,85,47,115,64c30,16,62,35,70,42c8,6,22,15,31,18s72,43,140,88c281,188,577,482,743,739c57,87,144,269,155,322
		c5,24,17,70,26,103c16,61,16,198,0,273c-9,42-54,126-101,191c-42,59-137,124-231,156c-37,13-69,28-71,33c-3,9,150,112,166,112
		c5,0,18,8,30,18c11,9,40,29,64,44c23,15,69,45,102,67c32,23,60,41,62,41c3,0,30,19,61,43c31,23,66,49,79,57c18,12,135,101,202,154
		c87,69,288,272,332,336c35,49,80,147,95,206c34,128-60,261-251,353c-46,23-89,41-96,41s-26,8-43,17c-26,16-63,18-300,19
		C10986.6,17590.8,10846.6,17588.8,10824.6,17586.8z"/>
	<path class="st0" d="M3155.6,17445.8c-3-5-72-12-153-16s-161-11-178-16c-16-5-70-14-118-21s-90-16-93-21c-3-4-20-8-38-8
		c-29,0-109-18-226-52c-19-5-51-12-70-15s-39-9-45-13c-5-4-57-20-115-35c-58-16-112-35-121-42c-8-7-22-13-29-13c-19,0-100-31-125-47
		c-11-7-26-13-35-13c-8,0-46-15-85-33c-131-64-247-122-275-138c-95-53-187-110-269-166c-51-34-95-63-98-63s-33-22-67-50
		c-33-27-81-64-105-82c-82-62-273-253-334-333c-33-44-87-136-121-205l-61-125v-115c0-192,47-298,160-365c46-27,100-33,108-12
		c2,6-4,27-15,45c-31,51-15,178,34,274c29,58,79,131,95,141c7,4,13,13,13,20c0,14,299,314,347,349c17,13,69,52,115,88
		c80,62,141,105,238,166c45,28,66,40,215,121c100,54,294,149,358,174c26,11,71,28,100,40c61,24,239,86,282,99c17,4,57,18,90,30
		s76,25,95,30c19,4,62,15,95,24c32,9,66,16,75,16c8,0,27,6,42,14c14,8,50,17,80,21c29,4,58,11,63,15c6,4,42,11,80,15
		c39,4,78,11,88,17c22,11,208,45,357,63c173,22,243,27,435,32c149,3,243,1,290-8c264-46,314-144,151-297c-64-59-117-88-228-125
		c-43-15-87-31-98-37c-52-28,1-109,106-160c35-18,70-33,77-34c6-2,29-6,49-10c80-17,260,58,348,144c74,72,99,119,106,199
		c6,63,4,75-23,133c-43,90-135,178-238,227c-91,44-202,83-290,101c-33,7-73,16-89,21c-16,5-44,9-62,9s-43,5-56,10
		c-13,6-81,15-153,21C3665.6,17448.8,3162.6,17456.8,3155.6,17445.8z"/>
	<path class="st0" d="M2754.6,16793.8c-106-27-221-141-363-356c-72-111-142-228-142-238c0-5-22-45-50-91c-27-46-50-88-50-95
		c0-6-18-48-41-92c-22-45-48-102-59-127c-10-25-39-95-65-156c-25-60-52-130-60-155c-7-25-20-58-29-75c-9-16-16-36-16-43s-4-20-9-30
		c-10-19-37-99-50-147c-4-17-13-40-19-52c-7-12-12-29-12-38s-7-31-15-48c-8-18-21-57-29-87c-9-30-25-89-37-130
		c-59-207-73-261-85-335c-7-44-19-107-25-140s-13-85-14-116c-1-30-8-65-14-77c-13-25-15-69-2-76c4-3,11-27,14-54c8-67,52-155,98-197
		c73-66,105-41,112,85c5,92,29,246,46,295c5,17,14,55,20,85c12,73,37,168,66,260c13,41,38,120,55,175c51,159,121,349,170,460
		c15,33,37,85,49,115c35,85,319,655,371,745c25,44,49,87,53,95c7,13,29,53,92,158c45,75,250,380,283,419c53,66,44,73-95,72
		C2837.6,16801.8,2771.6,16797.8,2754.6,16793.8z"/>
	<path class="st0" d="M3336.6,16298.8c-41-44-60-75-91-155c-25-64-36-108-32-123c3-13,24-45,46-70c33-37,54-51,103-66
		c68-21,77-18,123,27c125,124,173,249,124,329c-31,51-139,112-198,113C3396.6,16353.8,3370.6,16334.8,3336.6,16298.8z"/>
	<path class="st0" d="M3986.6,16053.8c-48-38-147-200-271-445c-28-55-61-114-72-130c-12-17-25-41-29-54c-8-27-182-211-199-211
		c-6,0-22-12-36-27c-14-14-43-37-65-51s-64-41-93-60c-82-52-123-32-88,43c9,18,16,38,16,43c0,6,7,25,16,44c37,74,44,90,44,101
		c0,7,9,29,20,50c11,20,20,45,20,54c0,10,7,27,15,37c8,11,15,31,15,44s4,31,9,41c27,50-54,148-147,177c-51,17-54,16-80-3
		c-52-38-123-160-162-278c-13-38-27-79-31-90c-15-39-21-102-20-200c2-117,18-159,84-225c63-62,142-106,210-113c65-8,89,1,147,53
		c20,18,36,26,38,20c3-7-68-157-156-333c-170-341-335-682-367-757c-11-25-41-87-67-138c-27-51-48-97-48-102c0-6-23-59-51-118
		c-84-176-89-189-89-201c0-6-9-28-20-48c-22-42-26-100-7-123c40-50,79-70,133-70c85,0,103,19,195,206c43,88,79,164,79,167
		c0,6,116,239,346,697c48,96,98,193,112,214c13,22,60,110,103,195c103,202,185,348,218,387c14,17,44,55,66,84c22,30,72,88,112,129
		c40,42,85,93,100,113c31,42,71,73,81,64c3-4-14-45-38-93c-43-85-59-156-47-205c12-48,140-168,180-168c7,0,26-7,42-16
		c18-10,65-18,120-21c90-5,90-5,143,30c66,45,151,119,253,222c122,122,265,278,271,295c6,19,112,29,231,22c82-5,88-6,93-29
		c9-35-52-151-128-245c-88-108-152-152-174-117c-7,13,39,103,71,139c13,14,42,54,64,90c45,69,51,112,17,118c-54,11-215-115-286-223
		c-33-50-40-69-40-110c0-100,135-260,245-290c54-15,148-10,189,10s175,146,220,208c32,44,101,180,121,241c21,60,22,165,3,201
		c-49,92-168,145-325,145c-114,0-117,7-38,91c82,90,87,160,14,242c-58,67-96,87-163,87c-55,0-59-2-104-47c-59-60-111-157-124-231
		c-13-75-12-98,2-155c11-46,11-50-12-74c-12-14-40-37-60-51c-20-15-81-61-136-102c-207-157-324-233-351-228c-42,8-26,39,138,258
		c51,69,108,154,126,189c37,69,35,85-9,123c-36,32-136,88-155,88c-10,0-38,7-61,15c-40,14-45,14-75-5c-18-11-49-39-69-63
		c-192-227-253-293-262-284c-5,4-3,16,3,25c7,9,24,39,39,66c14,27,34,61,44,75c34,49,140,229,140,238c0,5,12,25,26,44s35,54,45,78
		c24,54,17,83-36,147C4136.6,16063.8,4043.6,16098.8,3986.6,16053.8z"/>
	<path class="st0" d="M12632.6,16024.8c-33-15-52-36-92-98c-46-70-51-84-51-134c0-46,5-63,30-97c17-23,30-49,30-58
		c0-15-243-257-349-348c-62-52-91-59-91-22c0,13,36,95,79,182c97,194,109,251,65,303c-47,56-101,83-175,89c-61,4-68,3-78-17
		c-17-31-32-26-79,29c-48,55-131,103-198,114c-65,11-129-21-211-107c-156-164-239-300-297-487c-16-50-16-58-2-92c9-21,16-45,16-55
		c0-29,87-132,138-163c26-16,53-34,60-40c24-21,127-50,179-50c66,0,113,24,199,101l65,60l31-23c59-45,94-61,181-85l88-24l45,23
		c66,32,155,138,300,354c70,104,132,192,138,196s49,8,95,8h83l-5-27c-3-16-19-66-35-113c-47-137-30-243,50-303c51-38,165-97,188-97
		c12,0,31-5,42-11c80-43,329,208,483,486c15,28,36,62,46,76c10,15,23,38,29,53c5,14,14,26,20,26c5,0,10,20,10,45c0,41-2,45-25,45
		c-39,0-85-34-137-102c-27-35-73-90-103-123s-83-91-117-129c-75-81-173-158-196-154c-36,7-25,56,49,206c102,207,103,212,85,257
		c-17,39-46,67-101,95s-97,26-136-7c-74-62-200-104-212-70c-2,6,9,35,25,63c47,84,35,161-32,218
		C12722.6,16048.8,12689.6,16049.8,12632.6,16024.8z M11888.6,15709.8c12-14,4-103-10-112c-5-3-9-12-9-20c0-24-75-167-128-246
		c-63-94-162-188-196-188c-28,0-56,24-56,47c0,9,9,34,19,57c11,23,29,61,40,86c26,59,74,139,129,220
		C11772.6,15691.8,11853.6,15751.8,11888.6,15709.8z"/>
	<path class="st0" d="M6022.6,15789.8c-49-41-124-160-213-336c-87-174-140-318-140-382c0-31,8-46,48-87c49-51,132-102,197-120
		c57-15,99,7,194,104c46,47,87,85,92,85c13,0,11-23-5-45c-19-28-386-759-386-769c0-13-182-376-192-382c-4-3-8-13-8-22
		c0-15-77-180-246-527c-34-71-64-137-66-145c-5-33,13-69,48-89c46-27,178-30,227-5c50,26,53,31,136,254c18,47,41,103,52,126
		c10,23,19,48,19,56s13,42,30,74c16,32,30,63,30,69c0,9,27,66,128,270c89,182,251,439,353,562c24,29,62,76,84,104
		c64,82,122,151,165,195c22,23,40,45,40,50c0,4,23,32,50,63c28,31,82,92,120,136c72,82,125,140,278,305c100,109,128,157,114,198
		c-6,20-16,28-38,30c-26,3-45-13-164-136c-126-130-174-183-347-387c-97-114-143-172-187-235c-41-58-116-136-116-120c0,5,5,12,10,15
		c6,3,10,14,10,25c0,10,15,40,33,67c17,27,48,75,67,107s49,77,65,100c66,90,264,394,290,444c36,69,29,108-30,171
		c-32,35-58,51-100,64c-31,9-60,17-65,17c-8,0-48-46-153-178c-127-160-353-392-381-392c-21,0-21,34,0,51c8,7,22,26,31,43
		c8,16,48,79,88,140s87,141,104,177c38,80,34,99-37,173c-60,61-111,94-160,102C6059.6,15814.8,6048.6,15811.8,6022.6,15789.8z"/>
</g>
</svg>
